<svg width="128" height="128" viewBox="0 0 128 128" fill="none" xmlns="http://www.w3.org/2000/svg">
<path d="M63.81 1.026L4.55298 21.88L13.916 99.517L63.873 126.974L114.087 99.146L123.447 21.511L63.81 1.026Z" fill="white"/>
<path d="M117.536 25.998L63.672 7.629V120.414L108.813 95.431L117.536 25.998Z" fill="white"/>
<path d="M11.201 26.329L19.227 95.763L63.6711 120.414V7.62701L11.201 26.329Z" fill="white"/>
<path d="M78.4991 67.67L63.6721 74.604H48.0441L40.6971 92.978L27.0341 93.232L63.6721 11.724L78.4991 67.67ZM77.0651 64.179L63.7701 37.858L52.8641 63.726H63.6711L77.0651 64.179Z" fill="black"/>
<path d="M63.671 11.724L63.769 37.858L76.144 63.746H63.698L63.671 74.587L80.88 74.604L88.922 93.234L101.996 93.476L63.671 11.724Z" fill="black"/>
</svg>
