<svg width="128" height="128" viewBox="0 0 128 128" fill="none" xmlns="http://www.w3.org/2000/svg">
<path fill-rule="evenodd" clip-rule="evenodd" d="M90.491 57.282C90.121 52.492 88.995 47.873 87.429 43.348C84.185 33.244 78.979 24.302 71.646 16.608C69.792 14.662 67.73 12.879 66.437 10.457C65.619 8.92499 64.84 7.37199 64.043 5.82799L63.538 4.55499C63.453 4.84699 63.399 4.95099 63.396 5.05599C63.331 7.57299 61.905 9.27999 60.129 10.873C58.132 12.666 56.273 14.612 54.354 16.491L48.453 24.254C46.861 27.179 45.271 30.104 43.681 33.029L40.491 41.646L40.395 41.78C38.639 47.548 37.773 53.478 37.347 59.468C37.187 61.719 37.369 64.003 37.496 66.266C37.677 69.501 38.239 72.681 39.082 75.811C42.144 87.183 48.358 96.616 56.853 104.63C58.432 106.119 60.052 107.473 61.7 108.89C61.982 107.925 62.207 106.96 62.463 105.995C62.719 105.034 62.978 104.078 63.151 103.114C62.977 104.078 62.782 105.034 62.589 105.995L61.763 108.89L62.501 111.391L63.185 115.275L63.511 119.328C63.508 120.151 63.475 120.976 63.525 121.798C63.537 122.008 63.813 122.202 63.967 122.404L65.343 122.887L66.777 123.445L66.531 119.842L66.52 116.294L67.015 110.889L67.374 109.712L68.401 107.892C69.669 106.872 71.03 105.946 72.185 104.811C74.275 102.757 76.36 100.677 78.23 98.428C80.664 95.5129 82.7423 92.3184 84.421 88.912C85.543 86.628 86.599 84.298 87.473 81.911C88.243 79.807 88.72 77.596 89.327 75.432C89.381 75.276 89.453 75.123 89.487 74.964C90.741 69.123 90.952 63.223 90.491 57.282Z" fill="white"/>
</svg>
